HIERARCHY
ROOT Model
{
	OFFSET 0 0 0
	CHANNELS 6 Xposition Yposition Zposition Zrotation Xrotation Yrotation
	JOINT Model1
	{
		OFFSET 0 -2.25479 2.99384
		CHANNELS 3 Zrotation Xrotation Yrotation
		JOINT Model2
		{
			OFFSET 12.111 0 0
			CHANNELS 3 Zrotation Xrotation Yrotation
			JOINT Model3
			{
				OFFSET 11.5502 0 0
				CHANNELS 3 Zrotation Xrotation Yrotation
				JOINT Model4
				{
					OFFSET 11.781 0 0
					CHANNELS 3 Zrotation Xrotation Yrotation
					JOINT Model5
					{
						OFFSET 20.0601 0 0
						CHANNELS 3 Zrotation Xrotation Yrotation
						JOINT Model6
						{
							OFFSET 11.1962 0 0
							CHANNELS 3 Zrotation Xrotation Yrotation
							End Site
							{
								OFFSET 0 0 0
							}
						}
					}
					JOINT Model7
					{
						OFFSET 10.8223 0.417534 3.51114
						CHANNELS 3 Zrotation Xrotation Yrotation
						JOINT Model8
						{
							OFFSET -6.07944 0 0
							CHANNELS 3 Zrotation Xrotation Yrotation
							JOINT Model9
							{
								OFFSET -0.277405 10.39 -0.051239
								CHANNELS 3 Zrotation Xrotation Yrotation
								JOINT Model10
								{
									OFFSET -3.43909 -0.282043 1.86679
									CHANNELS 3 Zrotation Xrotation Yrotation
									JOINT Model11
									{
										OFFSET 13.0269 0 0
										CHANNELS 3 Zrotation Xrotation Yrotation
										JOINT Model12
										{
											OFFSET 10.8866 0 0
											CHANNELS 3 Zrotation Xrotation Yrotation
											JOINT Model13
											{
												OFFSET 16.7317 0 0
												CHANNELS 3 Zrotation Xrotation Yrotation
												JOINT Model14
												{
													OFFSET 11.8292 0 0
													CHANNELS 3 Zrotation Xrotation Yrotation
													JOINT Model15
													{
														OFFSET 4.82751 -3.73566 -0.836517
														CHANNELS 3 Zrotation Xrotation Yrotation
														JOINT Model16
														{
															OFFSET 3.75311 -0.0582886 -0.0186462
															CHANNELS 3 Zrotation Xrotation Yrotation
															JOINT Model17
															{
																OFFSET 2.88689 0.0192337 0.014801
																CHANNELS 3 Zrotation Xrotation Yrotation
																End Site
																{
																	OFFSET 0 0 0
																}
															}
														}
													}
													JOINT Model18
													{
														OFFSET 9.72197 -3.06458 0.23877
														CHANNELS 3 Zrotation Xrotation Yrotation
														JOINT Model19
														{
															OFFSET 4.61131 0 0
															CHANNELS 3 Zrotation Xrotation Yrotation
															JOINT Model20
															{
																OFFSET 2.8969 -7.62939e-006 0
																CHANNELS 3 Zrotation Xrotation Yrotation
																End Site
																{
																	OFFSET 0 0 0
																}
															}
														}
													}
													JOINT Model21
													{
														OFFSET 9.54431 -0.745064 0.588928
														CHANNELS 3 Zrotation Xrotation Yrotation
														JOINT Model22
														{
															OFFSET 5.33978 0 0
															CHANNELS 3 Zrotation Xrotation Yrotation
															JOINT Model23
															{
																OFFSET 3.03619 7.62939e-006 0
																CHANNELS 3 Zrotation Xrotation Yrotation
																End Site
																{
																	OFFSET 0 0 0
																}
															}
														}
													}
													JOINT Model24
													{
														OFFSET 9.47758 1.51286 0.485107
														CHANNELS 3 Zrotation Xrotation Yrotation
														JOINT Model25
														{
															OFFSET 4.96136 7.62939e-006 0
															CHANNELS 3 Zrotation Xrotation Yrotation
															JOINT Model26
															{
																OFFSET 2.51965 0 0
																CHANNELS 3 Zrotation Xrotation Yrotation
																End Site
																{
																	OFFSET 0 0 0
																}
															}
														}
													}
													JOINT Model27
													{
														OFFSET 9.34247 3.34117 -0.239288
														CHANNELS 3 Zrotation Xrotation Yrotation
														JOINT Model28
														{
															OFFSET 3.28259 2.28882e-005 0
															CHANNELS 3 Zrotation Xrotation Yrotation
															JOINT Model29
															{
																OFFSET 2.1292 0 0
																CHANNELS 3 Zrotation Xrotation Yrotation
																End Site
																{
																	OFFSET 0 0 0
																}
															}
														}
													}
												}
											}
										}
									}
								}
							}
						}
					}
					JOINT Model30
					{
						OFFSET 10.8223 0.4179 -3.51108
						CHANNELS 3 Zrotation Xrotation Yrotation
						JOINT Model31
						{
							OFFSET 6.07944 0 0
							CHANNELS 3 Zrotation Xrotation Yrotation
							JOINT Model32
							{
								OFFSET 0.277405 -10.39 0.051239
								CHANNELS 3 Zrotation Xrotation Yrotation
								JOINT Model33
								{
									OFFSET 3.43909 0.282043 -1.86679
									CHANNELS 3 Zrotation Xrotation Yrotation
									JOINT Model34
									{
										OFFSET -13.0269 0 0
										CHANNELS 3 Zrotation Xrotation Yrotation
										JOINT Model35
										{
											OFFSET -10.8866 0 0
											CHANNELS 3 Zrotation Xrotation Yrotation
											JOINT Model36
											{
												OFFSET -16.7317 0 0
												CHANNELS 3 Zrotation Xrotation Yrotation
												JOINT Model37
												{
													OFFSET -11.8292 0 0
													CHANNELS 3 Zrotation Xrotation Yrotation
													JOINT Model38
													{
														OFFSET -4.82751 3.73566 0.836517
														CHANNELS 3 Zrotation Xrotation Yrotation
														JOINT Model39
														{
															OFFSET -3.75311 0.0582886 0.0186462
															CHANNELS 3 Zrotation Xrotation Yrotation
															JOINT Model40
															{
																OFFSET -2.88687 -0.0192337 -0.014801
																CHANNELS 3 Zrotation Xrotation Yrotation
																End Site
																{
																	OFFSET 0 0 0
																}
															}
														}
													}
													JOINT Model41
													{
														OFFSET -9.72198 3.06459 -0.23877
														CHANNELS 3 Zrotation Xrotation Yrotation
														JOINT Model42
														{
															OFFSET -4.6113 0 0
															CHANNELS 3 Zrotation Xrotation Yrotation
															JOINT Model43
															{
																OFFSET -2.89691 0 0
																CHANNELS 3 Zrotation Xrotation Yrotation
																End Site
																{
																	OFFSET 0 0 0
																}
															}
														}
													}
													JOINT Model44
													{
														OFFSET -9.54431 0.745064 -0.588928
														CHANNELS 3 Zrotation Xrotation Yrotation
														JOINT Model45
														{
															OFFSET -5.33978 0 0
															CHANNELS 3 Zrotation Xrotation Yrotation
															JOINT Model46
															{
																OFFSET -3.03619 -1.52588e-005 0
																CHANNELS 3 Zrotation Xrotation Yrotation
																End Site
																{
																	OFFSET 0 0 0
																}
															}
														}
													}
													JOINT Model47
													{
														OFFSET -9.4776 -1.51286 -0.485107
														CHANNELS 3 Zrotation Xrotation Yrotation
														JOINT Model48
														{
															OFFSET -4.96136 -1.52588e-005 0
															CHANNELS 3 Zrotation Xrotation Yrotation
															JOINT Model49
															{
																OFFSET -2.51965 0 0
																CHANNELS 3 Zrotation Xrotation Yrotation
																End Site
																{
																	OFFSET 0 0 0
																}
															}
														}
													}
													JOINT Model50
													{
														OFFSET -9.34247 -3.34118 0.239288
														CHANNELS 3 Zrotation Xrotation Yrotation
														JOINT Model51
														{
															OFFSET -3.28259 -2.28882e-005 0
															CHANNELS 3 Zrotation Xrotation Yrotation
															JOINT Model52
															{
																OFFSET -2.12921 0 0
																CHANNELS 3 Zrotation Xrotation Yrotation
																End Site
																{
																	OFFSET 0 0 0
																}
															}
														}
													}
												}
											}
										}
									}
								}
							}
						}
					}
				}
			}
		}
	}
	JOINT Model53
	{
		OFFSET 4.38025 -2.14632 -1.11517
		CHANNELS 3 Zrotation Xrotation Yrotation
		JOINT Model54
		{
			OFFSET 0 0 4.94998
			CHANNELS 3 Zrotation Xrotation Yrotation
			JOINT Model55
			{
				OFFSET 18.5642 0 0
				CHANNELS 3 Zrotation Xrotation Yrotation
				JOINT Model56
				{
					OFFSET 21.2884 0 0
					CHANNELS 3 Zrotation Xrotation Yrotation
					JOINT Model57
					{
						OFFSET 30.261 0 0
						CHANNELS 3 Zrotation Xrotation Yrotation
						JOINT Model58
						{
							OFFSET 11.7259 0 0
							CHANNELS 3 Zrotation Xrotation Yrotation
							JOINT Model59
							{
								OFFSET 10.682 0 0
								CHANNELS 3 Zrotation Xrotation Yrotation
								End Site
								{
									OFFSET 0 0 0
								}
							}
						}
					}
				}
			}
		}
	}
	JOINT Model60
	{
		OFFSET -4.38025 -2.14632 -1.11517
		CHANNELS 3 Zrotation Xrotation Yrotation
		JOINT Model61
		{
			OFFSET 0 0 -4.94998
			CHANNELS 3 Zrotation Xrotation Yrotation
			JOINT Model62
			{
				OFFSET -18.5642 0 0
				CHANNELS 3 Zrotation Xrotation Yrotation
				JOINT Model63
				{
					OFFSET -21.2884 0 0
					CHANNELS 3 Zrotation Xrotation Yrotation
					JOINT Model64
					{
						OFFSET -30.261 0 0
						CHANNELS 3 Zrotation Xrotation Yrotation
						JOINT Model65
						{
							OFFSET -11.7259 0 0
							CHANNELS 3 Zrotation Xrotation Yrotation
							JOINT Model66
							{
								OFFSET -10.682 0 0
								CHANNELS 3 Zrotation Xrotation Yrotation
								End Site
								{
									OFFSET 0 0 0
								}
							}
						}
					}
				}
			}
		}
	}
}
MOTION
Frames: 4
Frame Time: 0.033333
-352.662 175.017 -356.642 116.88 -86.8816 118.082 -180 4.29621e-031 -90 0.507891 -0.701246 -0.627231 1.00818 -1.40842 -1.24836 1.00818 -1.40798 -1.24837 -6.46214 -0.192033 1.17773 16.8511 0.368676 3.05772 120.092 75.5343 58.4939 19.5702 -0.888237 -3.0289 -167.277 84.4999 48.8109 168.728 -14.549 -30.7361 4.71772e-006 9.97321 2.96609e-005 -0.985354 9.15037 6.60534 1.11909e-006 13.8744 1.40928e-006 -14.6329 1.90022 -14.7197 -72.0648 39.0385 39.3397 33.3638 2.10362 14.835 0.588947 0.308273 6.35287 -99.6409 81.413 100.35 -0.0181409 2.7782e-005 -0.117315 -0.124139 0.00241112 -0.799296 -79.8382 79.5773 80.5374 -0.000225783 -0.000220919 2.21842e-005 -0.000956235 0.0001229 -2.73346e-005 -66.7416 80.4058 67.2171 -0.000437139 1.59488e-005 -2.73308e-005 -0.000136613 -0.000109287 -5.46551e-005 -6.42159 81.2158 8.01779 -0.000218575 1.69039e-005 0.000212131 0.000901572 -0.000184807 -0.000218578 -59.9282 75.5373 58.5147 17.3902 4.83693 -1.81606 -167.277 84.4999 48.8109 174.917 -20.7976 -19.7828 7.15088e-006 -0.37042 2.90884e-005 -1.60122 8.47961 -0.0950259 -5.02611e-006 12.7462 2.11088e-006 -1.2734 0.15035 -13.4668 -72.0648 39.0385 39.3397 33.3638 2.10361 14.835 0.588946 0.308273 6.35287 -99.6409 81.413 100.35 -0.0181409 3.00738e-005 -0.117315 -0.124139 0.00241113 -0.799296 -79.8382 79.5773 80.5374 -0.000260653 -0.000218571 2.3579e-005 -0.000956236 0.00012299 -2.73092e-005 -66.7416 80.4058 67.2171 -0.000437139 1.48768e-005 -2.73118e-005 -0.000136613 -0.000109289 -5.46294e-005 -6.42159 81.2158 8.01779 -0.000218572 1.95756e-005 0.000212307 0.000901575 -0.00019125 -0.000218553 0.000811311 0.56661 89.91 -16.4185 -3.01166 -9.81846 5.79729e-007 1.55923 -4.83733e-009 35.0298 -1.27519 -1.57354 -6.16226e-008 -1.97963 -5.81604e-008 -66.9994 -1.64509 0.0193863 -35.4947 4.86175e-007 7.95854e-008 -180 -0.566579 -90.09 -13.975 -4.14386 -6.53195 -6.71452e-007 -1.90814 -2.06566e-008 34.2708 -2.98575 -1.28609 2.77607e-007 -4.54454 -2.84752e-007 -67.2065 -3.33936 0.936636 -35.4947 -2.46872e-007 8.83595e-008 
-352.652 175.019 -356.619 116.751 -86.8905 117.905 -180 4.29621e-031 -90 0.512444 -0.698225 -0.645751 1.01709 -1.40259 -1.28537 1.01709 -1.40215 -1.28538 -6.52316 -0.237733 1.00326 16.9225 0.309685 3.45416 120.092 75.5343 58.4939 19.6377 -0.469767 -2.98253 -167.277 84.4999 48.8109 169.101 -14.7059 -30.8995 4.70853e-006 9.9907 2.96625e-005 -0.99634 9.04761 6.75833 1.12292e-006 13.7232 1.40837e-006 -14.819 1.92901 -14.7526 -72.0648 39.0385 39.3397 33.3638 2.10362 14.835 0.588947 0.308273 6.35287 -99.6409 81.413 100.35 -0.0181409 2.7782e-005 -0.117315 -0.124139 0.00241112 -0.799296 -79.8382 79.5773 80.5374 -0.000225783 -0.000220919 2.21842e-005 -0.000956235 0.0001229 -2.73346e-005 -66.7416 80.4058 67.2171 -0.000437139 1.59488e-005 -2.73308e-005 -0.000136613 -0.000109287 -5.46551e-005 -6.42159 81.2158 8.01779 -0.000218575 1.69039e-005 0.000212131 0.000901572 -0.000184807 -0.000218578 -59.9282 75.5373 58.5147 17.2923 5.14436 -1.74913 -167.277 84.4999 48.8109 175.382 -20.9075 -19.74 7.15275e-006 -0.374101 2.90884e-005 -1.59369 8.67734 -0.0984148 -5.03734e-006 13.0429 2.11339e-006 -1.40421 0.170539 -13.8484 -72.0648 39.0385 39.3397 33.3638 2.10361 14.835 0.588946 0.308273 6.35287 -99.6409 81.413 100.35 -0.0181409 3.00738e-005 -0.117315 -0.124139 0.00241113 -0.799296 -79.8382 79.5773 80.5374 -0.000260653 -0.000218571 2.3579e-005 -0.000956236 0.00012299 -2.73092e-005 -66.7416 80.4058 67.2171 -0.000437139 1.48768e-005 -2.73118e-005 -0.000136613 -0.000109289 -5.46294e-005 -6.42159 81.2158 8.01779 -0.000218572 1.95756e-005 0.000212307 0.000901575 -0.00019125 -0.000218553 0.000811311 0.56661 89.91 -16.398 -3.00292 -9.74719 5.79726e-007 1.5317 -4.83727e-009 35.0161 -1.32641 -1.61636 -6.17007e-008 -2.05651 -5.81631e-008 -66.9658 -1.74136 0.0742139 -35.4947 3.91754e-007 1.02487e-007 -180 -0.566579 -90.09 -14.0018 -4.21662 -6.56975 -6.71484e-007 -1.99574 -2.06577e-008 34.2868 -2.92213 -1.42186 2.78081e-007 -4.44939 -2.84715e-007 -67.1969 -3.35815 0.947626 -35.4947 -2.38533e-007 8.69984e-008 
-352.646 175.022 -356.603 116.139 -86.9178 117.259 -180 4.29621e-031 -90 0.512281 -0.696164 -0.64293 1.01682 -1.39844 -1.27975 1.01682 -1.398 -1.27976 -6.54696 -0.245647 0.991008 16.9246 0.29839 3.44678 120.092 75.5343 58.4939 19.6779 -0.317118 -2.9682 -167.277 84.4999 48.8109 169.265 -14.7371 -30.8305 4.69802e-006 10.0107 2.96643e-005 -0.977694 8.94401 6.71406 1.1269e-006 13.5657 1.40743e-006 -14.8141 1.92468 -14.7248 -72.0648 39.0385 39.3397 33.3638 2.10362 14.835 0.588947 0.308273 6.35287 -99.6409 81.413 100.35 -0.0181409 2.7782e-005 -0.117315 -0.124139 0.00241112 -0.799296 -79.8382 79.5773 80.5374 -0.000225783 -0.000220919 2.21842e-005 -0.000956235 0.0001229 -2.73346e-005 -66.7416 80.4058 67.2171 -0.000437139 1.59488e-005 -2.73308e-005 -0.000136613 -0.000109287 -5.46551e-005 -6.42159 81.2158 8.01779 -0.000218575 1.69039e-005 0.000212131 0.000901572 -0.000184807 -0.000218578 -59.9282 75.5373 58.5147 17.3039 5.26037 -1.7337 -167.277 84.4999 48.8109 175.587 -20.9572 -19.7263 7.1536e-006 -0.375785 2.90884e-005 -1.58625 8.87189 -0.10183 -5.0484e-006 13.3349 2.11591e-006 -1.32462 0.162225 -13.9637 -72.0648 39.0385 39.3397 33.3638 2.10361 14.835 0.588946 0.308273 6.35287 -99.6409 81.413 100.35 -0.0181409 3.00738e-005 -0.117315 -0.124139 0.00241113 -0.799296 -79.8382 79.5773 80.5374 -0.000260653 -0.000218571 2.3579e-005 -0.000956236 0.00012299 -2.73092e-005 -66.7416 80.4058 67.2171 -0.000437139 1.48768e-005 -2.73118e-005 -0.000136613 -0.000109289 -5.46294e-005 -6.42159 81.2158 8.01779 -0.000218572 1.95756e-005 0.000212307 0.000901575 -0.00019125 -0.000218553 0.000811311 0.56661 89.91 -16.4115 -2.98494 -9.7022 5.79726e-007 1.5291 -4.83726e-009 34.9967 -1.35689 -1.62197 -6.17471e-008 -2.10222 -5.81648e-008 -66.9478 -1.77102 0.0915356 -35.4947 2.44609e-007 1.38183e-007 -180 -0.566579 -90.09 -14.0517 -4.2489 -6.60465 -6.71495e-007 -2.02677 -2.06581e-008 34.2993 -2.89716 -1.47625 2.78267e-007 -4.41206 -2.84701e-007 -67.2012 -3.37637 0.957301 -35.4947 -2.27254e-007 8.49408e-008 
-352.644 175.024 -356.587 115.672 -86.9473 116.775 -180 4.29621e-031 -90 0.516123 -0.696555 -0.623801 1.02473 -1.3991 -1.24144 1.02473 -1.39866 -1.24145 -6.5958 -0.223683 1.1085 16.9587 0.329205 3.13342 120.092 75.5343 58.4939 19.7347 -0.161262 -2.95616 -167.277 84.4999 48.8109 169.538 -14.8892 -30.6567 4.7683e-006 9.87694 2.96522e-005 -0.964135 8.92644 6.63554 1.12763e-006 13.5371 1.40726e-006 -14.6966 1.90271 -14.6748 -72.0648 39.0385 39.3397 33.3638 2.10362 14.835 0.588947 0.308273 6.35287 -99.6409 81.413 100.35 -0.0181409 2.7782e-005 -0.117315 -0.124139 0.00241112 -0.799296 -79.8382 79.5773 80.5374 -0.000225783 -0.000220919 2.21842e-005 -0.000956235 0.0001229 -2.73346e-005 -66.7416 80.4058 67.2171 -0.000437139 1.59488e-005 -2.73308e-005 -0.000136613 -0.000109287 -5.46551e-005 -6.42159 81.2158 8.01779 -0.000218575 1.69039e-005 0.000212131 0.000901572 -0.000184807 -0.000218578 -59.9282 75.5373 58.5147 17.4485 5.214 -1.77049 -167.277 84.4999 48.8109 175.604 -20.9379 -19.6393 7.15315e-006 -0.374885 2.90884e-005 -1.57843 9.0748 -0.105482 -5.05998e-006 13.6394 2.11861e-006 -1.02042 0.125767 -14.0521 -72.0648 39.0385 39.3397 33.3638 2.10361 14.835 0.588946 0.308273 6.35287 -99.6409 81.413 100.35 -0.0181409 3.00738e-005 -0.117315 -0.124139 0.00241113 -0.799296 -79.8382 79.5773 80.5374 -0.000260653 -0.000218571 2.3579e-005 -0.000956236 0.00012299 -2.73092e-005 -66.7416 80.4058 67.2171 -0.000437139 1.48768e-005 -2.73118e-005 -0.000136613 -0.000109289 -5.46294e-005 -6.42159 81.2158 8.01779 -0.000218572 1.95756e-005 0.000212307 0.000901575 -0.00019125 -0.000218553 0.000811311 0.56661 89.91 -16.4166 -2.94509 -9.65316 5.79729e-007 1.55812 -4.83733e-009 34.9809 -1.39922 -1.63044 -6.18116e-008 -2.16571 -5.81672e-008 -66.9291 -1.7624 0.0878155 -35.4947 5.91207e-008 1.83183e-007 -180 -0.566579 -90.09 -14.0846 -4.2604 -6.62833 -6.71497e-007 -2.0321 -2.06582e-008 34.3015 -2.88643 -1.48183 2.78347e-007 -4.39597 -2.84694e-007 -67.1966 -3.35883 0.948022 -35.4947 -2.13182e-007 8.22216e-008 
